<?xml version="1.0" standalone="no"?>
<!DOCTYPE svg PUBLIC "-//W3C//DTD SVG 20010904//EN"
 "http://www.w3.org/TR/2001/REC-SVG-20010904/DTD/svg10.dtd">
<svg version="1.0" xmlns="http://www.w3.org/2000/svg"
 width="245.000000pt" height="344.000000pt" viewBox="0 0 245.000000 344.000000"
 preserveAspectRatio="xMidYMid meet">

<g transform="translate(0.000000,344.000000) scale(0.100000,-0.100000)"
fill="#000000" stroke="none">
<path d="M1398 3140 c-20 -4 -72 -30 -115 -58 -44 -29 -83 -52 -87 -52 -4 0 5
16 20 35 14 19 23 35 19 35 -4 0 -58 -39 -119 -87 -61 -47 -120 -93 -131 -102
-11 -8 12 18 50 58 l70 74 -50 -28 c-148 -83 -392 -258 -517 -371 -66 -61
-188 -187 -184 -191 0 -1 54 3 120 8 65 5 121 7 124 5 2 -3 -23 -49 -55 -103
-33 -54 -63 -103 -66 -109 -4 -7 29 -9 108 -6 l113 4 -3 -31 c-4 -51 14 -143
39 -197 l24 -51 -42 9 c-103 24 -223 -16 -293 -97 -38 -44 -86 -133 -97 -180
-4 -16 -10 -39 -13 -50 -4 -16 2 -13 28 12 38 36 96 63 135 63 25 0 86 -49 95
-78 3 -10 11 -11 34 -2 54 21 115 -11 115 -60 0 -36 -77 -85 -144 -92 -26 -3
-55 -13 -65 -22 -10 -9 -34 -16 -55 -16 -41 0 -56 -6 -134 -58 -63 -41 -63
-48 -3 -145 39 -64 59 -76 95 -59 11 6 39 13 60 16 45 6 81 36 98 82 13 36 60
64 108 64 29 0 40 -13 21 -25 -5 -3 -39 -50 -76 -105 -72 -110 -72 -113 -18
-171 22 -24 25 -39 33 -151 7 -114 6 -159 -6 -197 -3 -8 -35 17 -90 68 -66 63
-92 81 -114 81 -16 0 -32 5 -35 10 -4 6 -26 10 -49 9 -23 -2 -47 0 -53 4 -5 3
-18 0 -28 -7 -18 -13 -17 -20 13 -172 36 -180 44 -194 117 -194 30 0 45 5 49
16 9 24 7 46 -3 39 -18 -11 -23 17 -11 61 7 24 14 44 16 44 1 0 46 -21 98 -46
123 -59 134 -57 170 35 26 66 29 69 84 94 32 15 91 30 132 35 l75 9 56 -51
c31 -28 76 -69 100 -91 25 -22 71 -76 103 -120 57 -78 213 -238 227 -233 4 2
53 61 109 133 90 115 101 133 96 160 -9 42 -40 81 -62 77 -41 -6 -45 -11 -34
-31 9 -18 5 -22 -35 -40 -25 -11 -58 -29 -74 -40 l-27 -20 -41 32 c-22 18 -75
57 -118 87 -42 30 -83 61 -91 68 -27 25 -79 105 -76 116 2 6 7 31 12 56 11 63
91 270 105 270 6 0 43 16 84 35 68 33 73 34 78 16 3 -13 17 -20 46 -24 61 -8
91 -46 84 -106 -3 -25 -9 -54 -13 -65 -6 -16 -4 -17 13 -7 45 23 133 114 154
157 12 26 23 69 25 96 1 36 9 57 26 75 19 20 23 36 24 85 1 57 3 62 30 76 91
46 157 131 194 249 10 34 31 85 46 114 14 30 37 80 49 113 21 55 28 63 76 89
134 72 209 154 209 227 0 68 -117 439 -168 533 -40 74 -130 110 -267 106 l-71
-2 -76 56 c-155 115 -293 165 -400 147z m42 -1072 c53 -37 74 -72 74 -126 0
-91 -61 -152 -151 -152 -61 0 -106 27 -133 79 -25 50 -25 84 0 136 38 79 141
109 210 63z m450 -126 c39 -40 48 -92 24 -150 -23 -56 -60 -84 -108 -84 -43 0
-73 22 -92 69 -19 44 -18 69 7 120 37 76 117 97 169 45z m-1040 -97 c0 -50 28
-119 67 -164 27 -32 33 -45 24 -54 -14 -14 -24 -4 -74 71 -40 59 -74 142 -83
205 l-7 42 37 -34 c26 -26 36 -43 36 -66z m766 -330 c5 -11 16 -13 43 -10 54
8 64 -4 64 -75 0 -52 -3 -63 -23 -78 -49 -36 -86 -52 -121 -52 -35 0 -37 2
-43 39 -3 21 -17 49 -32 64 -21 22 -24 29 -14 47 11 20 95 80 112 80 5 0 11
-7 14 -15z m-180 -75 c36 0 29 -16 -13 -28 -54 -15 -103 -5 -103 20 0 19 4 20
46 14 26 -3 57 -6 70 -6z m-948 -12 c5 -7 13 -24 17 -38 4 -14 17 -34 30 -45
23 -19 23 -22 9 -51 -28 -57 -99 -72 -133 -28 -12 15 -21 31 -21 35 0 18 30 8
55 -16 l25 -26 0 35 c0 19 4 46 10 60 7 20 6 24 -5 20 -8 -3 -17 -14 -20 -25
-10 -29 -21 -23 -44 24 l-21 42 27 12 c36 16 58 16 71 1z m-114 -60 c-10 -16
-63 -38 -69 -29 -3 5 9 21 27 35 22 17 35 21 40 13 3 -6 4 -15 2 -19z m-14
-89 c0 -5 -4 -9 -10 -9 -5 0 -10 7 -10 16 0 8 5 12 10 9 6 -3 10 -10 10 -16z
m35 -49 c3 -5 -1 -10 -9 -10 -9 0 -16 5 -16 10 0 6 4 10 9 10 6 0 13 -4 16
-10z"/>
</g>
</svg>
